<mxfile host="app.diagrams.net" agent="Mozilla/5.0 (Windows NT 10.0; Win64; x64) AppleWebKit/537.36 (KHTML, like Gecko) Chrome/135.0.0.0 Safari/537.36" version="26.2.14">
  <diagram name="Page-1" id="h4JcTxZkDbjLSUDB8Wbs">
    <mxGraphModel dx="2758" dy="1082" grid="0" gridSize="10" guides="1" tooltips="1" connect="1" arrows="1" fold="1" page="0" pageScale="1" pageWidth="850" pageHeight="1100" math="0" shadow="0">
      <root>
        <mxCell id="0" />
        <mxCell id="1" parent="0" />
        <mxCell id="SaU0E1TwjeS_QeUjF3g2-1" value="D1" style="html=1;dashed=0;whiteSpace=wrap;shape=mxgraph.dfd.dataStoreID;align=left;spacingLeft=3;points=[[0,0],[0.5,0],[1,0],[0,0.5],[1,0.5],[0,1],[0.5,1],[1,1]];" vertex="1" parent="1">
          <mxGeometry x="-1045" y="228" width="100" height="30" as="geometry" />
        </mxCell>
        <mxCell id="SaU0E1TwjeS_QeUjF3g2-16" style="edgeStyle=none;curved=1;rounded=0;orthogonalLoop=1;jettySize=auto;html=1;entryX=0.5;entryY=1;entryDx=0;entryDy=0;fontSize=12;startSize=8;endSize=8;" edge="1" parent="1">
          <mxGeometry relative="1" as="geometry">
            <mxPoint x="-776" y="51" as="sourcePoint" />
            <mxPoint x="-776" y="-30" as="targetPoint" />
          </mxGeometry>
        </mxCell>
        <mxCell id="SaU0E1TwjeS_QeUjF3g2-2" value="Assign Animal to Outreach" style="rounded=1;whiteSpace=wrap;html=1;" vertex="1" parent="1">
          <mxGeometry x="-863" y="51" width="120" height="58" as="geometry" />
        </mxCell>
        <mxCell id="SaU0E1TwjeS_QeUjF3g2-12" style="edgeStyle=orthogonalEdgeStyle;rounded=0;orthogonalLoop=1;jettySize=auto;html=1;entryX=0.5;entryY=0;entryDx=0;entryDy=0;fontSize=12;startSize=8;endSize=8;" edge="1" parent="1">
          <mxGeometry relative="1" as="geometry">
            <mxPoint x="-837" y="-30" as="sourcePoint" />
            <mxPoint x="-837" y="49" as="targetPoint" />
          </mxGeometry>
        </mxCell>
        <mxCell id="SaU0E1TwjeS_QeUjF3g2-3" value="Volunteer" style="rounded=0;whiteSpace=wrap;html=1;" vertex="1" parent="1">
          <mxGeometry x="-863" y="-89" width="120" height="59" as="geometry" />
        </mxCell>
        <mxCell id="SaU0E1TwjeS_QeUjF3g2-23" style="edgeStyle=orthogonalEdgeStyle;shape=connector;rounded=0;orthogonalLoop=1;jettySize=auto;html=1;entryX=0;entryY=0.75;entryDx=0;entryDy=0;strokeColor=default;align=center;verticalAlign=middle;fontFamily=Helvetica;fontSize=12;fontColor=default;labelBackgroundColor=default;startSize=8;endArrow=classic;endSize=8;" edge="1" parent="1" source="SaU0E1TwjeS_QeUjF3g2-4" target="SaU0E1TwjeS_QeUjF3g2-2">
          <mxGeometry relative="1" as="geometry">
            <Array as="points">
              <mxPoint x="-982" y="95" />
            </Array>
          </mxGeometry>
        </mxCell>
        <mxCell id="SaU0E1TwjeS_QeUjF3g2-4" value="Animal" style="text;html=1;align=center;verticalAlign=middle;resizable=0;points=[];autosize=1;strokeColor=none;fillColor=none;fontSize=16;" vertex="1" parent="1">
          <mxGeometry x="-1016" y="229" width="67" height="31" as="geometry" />
        </mxCell>
        <mxCell id="SaU0E1TwjeS_QeUjF3g2-5" value="D2" style="html=1;dashed=0;whiteSpace=wrap;shape=mxgraph.dfd.dataStoreID;align=left;spacingLeft=3;points=[[0,0],[0.5,0],[1,0],[0,0.5],[1,0.5],[0,1],[0.5,1],[1,1]];" vertex="1" parent="1">
          <mxGeometry x="-882" y="229" width="160" height="30" as="geometry" />
        </mxCell>
        <mxCell id="SaU0E1TwjeS_QeUjF3g2-6" value="Animal Outreach" style="text;html=1;align=center;verticalAlign=middle;resizable=0;points=[];autosize=1;strokeColor=none;fillColor=none;fontSize=16;" vertex="1" parent="1">
          <mxGeometry x="-856" y="228" width="137" height="31" as="geometry" />
        </mxCell>
        <mxCell id="SaU0E1TwjeS_QeUjF3g2-8" value="D3" style="html=1;dashed=0;whiteSpace=wrap;shape=mxgraph.dfd.dataStoreID;align=left;spacingLeft=3;points=[[0,0],[0.5,0],[1,0],[0,0.5],[1,0.5],[0,1],[0.5,1],[1,1]];" vertex="1" parent="1">
          <mxGeometry x="-648" y="230" width="113" height="30" as="geometry" />
        </mxCell>
        <mxCell id="SaU0E1TwjeS_QeUjF3g2-25" style="edgeStyle=orthogonalEdgeStyle;shape=connector;rounded=0;orthogonalLoop=1;jettySize=auto;html=1;entryX=1;entryY=0.5;entryDx=0;entryDy=0;strokeColor=default;align=center;verticalAlign=middle;fontFamily=Helvetica;fontSize=12;fontColor=default;labelBackgroundColor=default;startSize=8;endArrow=classic;endSize=8;" edge="1" parent="1">
          <mxGeometry relative="1" as="geometry">
            <mxPoint x="-576" y="225" as="sourcePoint" />
            <mxPoint x="-743" y="76" as="targetPoint" />
            <Array as="points">
              <mxPoint x="-576" y="76" />
            </Array>
          </mxGeometry>
        </mxCell>
        <mxCell id="SaU0E1TwjeS_QeUjF3g2-9" value="Outreach" style="text;html=1;align=center;verticalAlign=middle;resizable=0;points=[];autosize=1;strokeColor=none;fillColor=none;fontSize=16;" vertex="1" parent="1">
          <mxGeometry x="-618" y="229" width="84" height="31" as="geometry" />
        </mxCell>
        <mxCell id="SaU0E1TwjeS_QeUjF3g2-17" value="1 {Animal_ID,Breed_ID,Status_ID,&lt;div&gt;&lt;span style=&quot;background-color: transparent; color: light-dark(rgb(0, 0, 0), rgb(255, 255, 255));&quot;&gt;Animal_Name,Animal_Age, IsAdopted,&lt;/span&gt;&lt;/div&gt;&lt;div&gt;&lt;span style=&quot;background-color: transparent; color: light-dark(rgb(0, 0, 0), rgb(255, 255, 255));&quot;&gt;Date_Adopted,Animal_Photo} N&lt;/span&gt;&lt;/div&gt;" style="text;html=1;align=center;verticalAlign=middle;resizable=0;points=[];autosize=1;strokeColor=none;fillColor=none;fontSize=16;" vertex="1" parent="1">
          <mxGeometry x="-1287" y="112.5" width="295" height="70" as="geometry" />
        </mxCell>
        <mxCell id="SaU0E1TwjeS_QeUjF3g2-24" style="edgeStyle=orthogonalEdgeStyle;shape=connector;rounded=0;orthogonalLoop=1;jettySize=auto;html=1;entryX=0.384;entryY=-0.057;entryDx=0;entryDy=0;entryPerimeter=0;strokeColor=default;align=center;verticalAlign=middle;fontFamily=Helvetica;fontSize=12;fontColor=default;labelBackgroundColor=default;startSize=8;endArrow=classic;endSize=8;" edge="1" parent="1">
          <mxGeometry relative="1" as="geometry">
            <mxPoint x="-800.8599999999999" y="112.77" as="sourcePoint" />
            <mxPoint x="-801.252" y="230.00299999999996" as="targetPoint" />
          </mxGeometry>
        </mxCell>
        <mxCell id="SaU0E1TwjeS_QeUjF3g2-27" value="1 {Out_ID,Out_Venue,&lt;div&gt;Out_Date,Out_Time} N&lt;/div&gt;" style="text;html=1;align=center;verticalAlign=middle;resizable=0;points=[];autosize=1;strokeColor=none;fillColor=none;fontSize=12;fontFamily=Helvetica;fontColor=default;labelBackgroundColor=default;" vertex="1" parent="1">
          <mxGeometry x="-566" y="112.5" width="141" height="41" as="geometry" />
        </mxCell>
        <mxCell id="SaU0E1TwjeS_QeUjF3g2-30" value="Animal_ID&amp;nbsp; + Out_ID" style="text;html=1;align=center;verticalAlign=middle;resizable=0;points=[];autosize=1;strokeColor=none;fillColor=none;fontSize=12;fontFamily=Helvetica;fontColor=default;labelBackgroundColor=default;" vertex="1" parent="1">
          <mxGeometry x="-936" y="160" width="128" height="26" as="geometry" />
        </mxCell>
        <mxCell id="SaU0E1TwjeS_QeUjF3g2-31" value="List of&amp;nbsp;&lt;div&gt;animals&amp;nbsp;&lt;/div&gt;" style="text;html=1;align=center;verticalAlign=middle;resizable=0;points=[];autosize=1;strokeColor=none;fillColor=none;fontSize=12;fontFamily=Helvetica;fontColor=default;labelBackgroundColor=default;" vertex="1" parent="1">
          <mxGeometry x="-935" y="-22" width="63" height="41" as="geometry" />
        </mxCell>
        <mxCell id="SaU0E1TwjeS_QeUjF3g2-33" value="Outreach ID" style="text;html=1;align=center;verticalAlign=middle;resizable=0;points=[];autosize=1;strokeColor=none;fillColor=none;fontSize=12;fontFamily=Helvetica;fontColor=default;labelBackgroundColor=default;" vertex="1" parent="1">
          <mxGeometry x="-756.5" y="-6.5" width="83" height="26" as="geometry" />
        </mxCell>
      </root>
    </mxGraphModel>
  </diagram>
</mxfile>
